PathFileType	3	(X/Y/Z)	D:\Jess\Healthy\Labelled\HA07\20250404\SRRun01.trc
DataRate	CameraRate	NumFrames	NumMarkers	Units	OrigDataRate	OrigDataStartFrame	OrigNumFrames
250.0	250.0	5	33	mm	250.0	37188	2501
Frame#	Time	C7			T10			CLAV			LSHO			RSHO			LASIS			RASIS			LPSIS			RPSIS			LILCR			RILCR			LGTR			LTHI			LLTHI			LLEP			LPSH			LLSH			LDSH			LLMAL			LTOE			L5TH			LHEE			RGTR			RTHI			RLTHI			RLEP			RPSH			RLSH			RDSH			RLMAL			RTOE			R5TH			RHEE			
		X1	Y1	Z1	X2	Y2	Z2	X3	Y3	Z3	X4	Y4	Z4	X5	Y5	Z5	X6	Y6	Z6	X7	Y7	Z7	X8	Y8	Z8	X9	Y9	Z9	X10	Y10	Z10	X11	Y11	Z11	X12	Y12	Z12	X13	Y13	Z13	X14	Y14	Z14	X15	Y15	Z15	X16	Y16	Z16	X17	Y17	Z17	X18	Y18	Z18	X19	Y19	Z19	X20	Y20	Z20	X21	Y21	Z21	X22	Y22	Z22	X23	Y23	Z23	X24	Y24	Z24	X25	Y25	Z25	X26	Y26	Z26	X27	Y27	Z27	X28	Y28	Z28	X29	Y29	Z29	X30	Y30	Z30	X31	Y31	Z31	X32	Y32	Z32	X33	Y33	Z33	

2189	148.748	1047.204414621262	1368.9218450746	-283.3835567769815	984.9808982091722	1156.876975341183	-258.2600773326099	1172.539182381993	1289.355817860092	-316.3075567194396	1052.725207984094	1355.474138740746	-436.6822818052116	1139.058542317667	1354.464853320868	-155.205767093175	1122.350546831696	929.0935199662341	-407.0430194843709	1158.811974791973	918.6744274123644	-183.871521716656	972.0444675652237	965.6226593872378	-281.1716344399769	981.6577317515585	965.494045168733	-240.7946778270617	1056.029206066891	956.6578652885455	-443.5397278866329	1105.81656512127	952.4576317404673	-138.7320361564107	1050.323002493198	846.4289466943897	-461.0178866147102	1209.260976824833	750.4044453834917	-403.0882478652172	1146.381568301639	625.2246163894862	-438.9896990354741	1200.052584657032	473.830547415244	-405.4291527697808	1261.322389273301	400.1382566906906	-356.8975007611569	1166.679785076407	289.4826413561373	-394.07712410326	1234.387349014543	194.3361073136641	-324.2971133489631	1186.99785372004	95.3744207898621	-342.0302036210346	1316.589960177994	68.33181769964146	-332.8282324436502	1277.937111397237	43.60844939844448	-369.076579210355	1112.423228583243	71.22538867605222	-292.6654527269287	1102.481298365681	840.6993952577225	-122.0314809163448	1164.837446220984	690.2703559283736	-215.9289029017642	1073.716648837949	598.0165325601369	-151.9532434659523	1022.820786428612	444.155322947697	-175.6049869879125	976.1337871456716	366.5672023745795	-231.835638569534	856.1560179453572	400.7695786545122	-160.7800210196796	770.2491372291685	319.0152686636383	-230.250636413656	666.7465893382782	322.755504218382	-193.9013804378434	642.2987770949787	202.396664574959	-236.7797470366673	605.7716461753719	223.4894863585035	-194.1764376494224	631.2262982257353	402.0690170921835	-222.5970945014078	
2190	148.752	1047.422190260613	1365.72548005325	-283.8466094246241	984.3123072120724	1153.730363809121	-258.6551509438003	1172.680141305586	1285.616596075442	-316.3496659424787	1053.446067366503	1352.058330733098	-437.6124834625656	1138.651672201198	1351.139878723273	-155.2340861901991	1121.287040399121	925.9203250553113	-407.5542985678373	1158.252534047158	914.8531521217435	-183.9032957470866	971.3215626139543	961.8262739304209	-280.453482715307	980.944871920398	961.5549678607482	-240.0799366550791	1054.492206154104	953.1966342058463	-443.6477270128262	1105.174377029809	948.160039678192	-138.2058661816979	1048.86098475332	843.0696183991223	-460.761030686964	1209.186481819659	747.7766201596595	-404.4784263446243	1145.538797186062	622.3792752900258	-438.612062897024	1199.899072954484	471.2483762195156	-405.3116089993681	1259.987584288705	396.9721017127914	-356.190148325612	1163.38158615055	288.0317578147943	-393.6650228438489	1227.653232074228	191.9431958175696	-322.6390198712869	1177.09218102914	94.98605313719908	-340.7563377518489	1306.5375326635	66.55341076850179	-331.8758330115587	1267.332720975938	43.13291154999214	-368.7743612698612	1102.137138501139	71.46610498890958	-291.7410475436736	1102.646342847766	836.4146629142706	-122.2794256350957	1166.227601001442	687.478033874182	-215.6932462695653	1076.781381318123	593.9126134733615	-151.2968822901022	1029.140012977714	440.0987998406754	-174.4789614079507	981.8219174244539	363.3221385394677	-230.5587289813564	862.3856809738646	400.1224765013901	-159.6913085309451	775.0148462625373	320.1376573138279	-228.7112835714731	671.673686256441	326.3342980601263	-192.3891414098517	645.2928095025471	206.1234398914745	-234.3850633495943	609.0940086128919	228.1023230118855	-191.9752525237298	637.4785857465474	406.0952644449845	-221.614825141842	
2191	148.756	1047.637354440411	1362.504584683371	-284.2707929050513	983.6095074993423	1150.592295173211	-259.0635773944147	1172.837959579307	1281.860040867496	-316.3629335702585	1054.169088799368	1348.613560242991	-438.5664019483477	1138.219233925154	1347.782271779623	-155.210844439446	1120.230814388528	922.6979103900915	-408.0505408480505	1157.597643481142	911.0264332725768	-183.9186375714879	970.5481002325671	958.1464890174084	-279.7990017477721	980.1597622204138	957.7250159728942	-239.4232771904492	1052.995814835353	949.7252451409506	-443.7728713987376	1104.436400590486	943.9017901824645	-137.6709844432707	1047.427409144301	839.7332849083461	-460.5294284925803	1208.945045942401	744.8806321215819	-405.6787883095838	1144.659581152641	619.433461299981	-438.3183687912876	1199.750440010886	468.6404013705071	-405.2445027675896	1258.508539754878	393.8647045247656	-355.3774719776799	1160.149192865715	286.6708393289924	-393.4023435001147	1220.772763834489	189.7280570106661	-321.0604329606767	1167.106094580461	94.78116201011709	-339.6375192078548	1296.366161802172	65.10537539916997	-331.0364632434002	1256.689331293456	42.89598357021314	-368.531466271512	1091.79364955252	71.78969667867946	-290.9857204486897	1102.697256214417	832.2084873527537	-122.5226860378922	1167.58691371219	684.7653073674056	-215.4358289611141	1079.847280868708	589.9312105468672	-150.5895571062757	1035.582062554179	436.1476614708037	-173.3322226978412	987.7164851581858	360.1787378207866	-229.2970379039493	868.8369613565161	399.4147676868277	-158.5948352833737	780.1360681545831	321.1118287066503	-227.1691571834715	676.9778717207046	329.6764061857561	-190.8939315463275	648.823209815199	209.5655655651969	-231.8477497895471	612.9518203629071	232.4388150324787	-189.6521097657923	644.0181518234699	409.7889082272365	-220.7739479740314	
2192	148.76	1047.853650454943	1359.284362063323	-284.6584375825371	982.8725267837077	1147.494121397984	-259.487014644073	1173.012468628476	1278.107508471345	-316.3438786127275	1054.899330678878	1345.163345147422	-439.538034388397	1137.765162890985	1344.415835252451	-155.1393166018607	1119.188290307655	919.455869866177	-408.5196309483601	1156.842031278789	907.2326868077735	-183.9104704788487	969.7220672608436	954.612671609616	-279.2183309395942	979.3005143165948	954.0348532166489	-238.8356415571515	1051.552528924115	946.2750381698003	-443.9118335544466	1103.592225786169	939.7236522468631	-137.1302781811898	1046.03328332516	836.4544940554026	-460.3275981042113	1208.524381398902	741.7568015556361	-406.6622913382682	1143.740396224191	616.4193096712926	-438.1069509462594	1199.561358938186	466.0168371829463	-405.223982857898	1256.848873967659	390.8187355691625	-354.4789146866652	1156.933604283962	285.3862844106721	-393.2733043391033	1213.74679814415	187.6858656652998	-319.5778763647376	1157.062441603799	94.73746359808133	-338.671233334213	1286.10028277168	63.95923234456976	-330.3152756124274	1246.026469773105	42.85700645167297	-368.3410140662816	1081.417831821177	72.18647131761172	-290.3785793632824	1102.622247825872	828.1177405640644	-122.7559427996204	1168.924617826444	682.1633585773286	-215.1671321186197	1082.931441275151	586.1039076645772	-149.8370195136967	1042.154052405027	432.3279218197621	-172.1806833321299	993.8201546046113	357.1556767161767	-228.0694620825025	875.5064174360999	398.6500027230134	-157.4968772830224	785.5990181356337	321.933171561752	-225.6394658388576	682.6411214272855	332.7612393963971	-189.422802366409	652.8894487812186	212.7003628777891	-229.1870003497914	617.3466686116273	236.4646527556854	-187.2175243462196	650.8025936733676	413.1281216181776	-220.0659574521268	
2193	148.764	1048.0743958063	1356.090732359984	-285.013769446225	982.1018763480703	1144.466705007693	-259.9275364408276	1173.202683043764	1274.380610751367	-316.2889792975781	1055.64344050708	1341.732025620226	-440.5206787140093	1137.291914770426	1341.065448886325	-155.0240608518652	1118.166632409838	916.2264285842055	-408.9491955138935	1155.981966757087	903.5096809800278	-183.8713963525885	968.8429239346906	951.2511998883298	-278.7200363635493	978.3671184677455	950.5120132506612	-238.3265123322406	1050.174978501363	942.8794995032424	-444.0608563795305	1102.633001643646	935.6643543550272	-136.5868770139935	1044.689589907779	833.2690413470197	-460.1594715741303	1207.918065356341	738.4564793256684	-407.4083027521957	1142.775951383526	613.3737681582602	-437.9744427562139	1199.278366400609	463.3870753800252	-405.2442627665252	1254.970291728073	387.8319282352867	-353.5189030481694	1153.67556742772	284.1617544436174	-393.2579162212302	1206.572805644329	185.8061323180436	-318.2044066109618	1146.977928335618	94.82996793937815	-337.8508090276517	1275.759090639938	63.08013959237	-329.7127111933091	1235.356786103045	42.97380697563283	-368.1954751742447	1071.027374322121	72.64544572319562	-289.896806604766	1102.410377230281	824.1762041869308	-122.9740756610438	1170.249451665487	679.7021512010846	-214.8963060361976	1086.051514715262	582.4605660672515	-149.0448781488546	1048.862186855494	428.665890387739	-171.0400978122272	1000.135042240394	354.2715070990079	-226.8936323336718	882.3894468221308	397.8329816036979	-156.4040551752095	791.3893099437869	322.5979390503478	-224.1364922910954	688.6444763821834	335.568847311076	-187.9821861574682	657.4880592130497	215.5059579463544	-226.4241765300614	622.2760548470424	240.1462511366245	-184.6846113557936	657.7903593107027	416.0931566339816	-219.47991671302	
